<svg version="1.1" x="0px" y="0px" viewBox="0 0 484.2 484.2" style="enable-background:new 0 0 484.2 484.2;" xml:space="preserve"> <path id="XMLID_2079_" d="M413.3,70.9C367.6,25.2,306.8,0,242.1,0S116.6,25.2,70.9,70.9S0,177.4,0,242.1s25.2,125.5,70.9,171.2s106.5,70.9,171.2,70.9s125.5-25.2,171.2-70.9s70.9-106.5,70.9-171.2S459,116.6,413.3,70.9z M242.1,162.8c-15.3,0-27.7,12.4-27.7,27.7c0,7-5.7,12.7-12.7,12.7s-12.7-5.7-12.7-12.7c0-29.3,23.8-53.1,53.1-53.1c7,0,12.7,5.7,12.7,12.7C254.8,157.1,249.1,162.8,242.1,162.8z M376.2,374.7c-14.1-50.9-40.8-95.3-89.2-112c24.1-15,40.1-41.7,40.1-72.2c0-47-38.1-85-85-85s-85,38.1-85,85c0,30.5,16,57.2,40.1,72.2c-48.4,16.7-75.1,61.1-89.2,112c-33.7-34.1-54.6-81-54.6-132.6c0-104.1,84.7-188.7,188.7-188.7c104.1,0,188.7,84.7,188.7,188.7C430.8,293.8,410,340.6,376.2,374.7z"/></svg>
